<svg xmlns="http://www.w3.org/2000/svg" viewBox="0 0 336.92 45.39"><defs><style>.cls-1{fill:#ffffff;}</style></defs><title>FlyBLACK_Logo_Blk</title><g id="Layer_2" data-name="Layer 2"><g id="Layer_1-2" data-name="Layer 1"><path class="cls-1" d="M2.46,4.31V18.72h18v2.22h-18v14.9H0V2.09H22.57V4.31Z"/><path class="cls-1" d="M33,.06h2.41V35.84H33Z"/><path class="cls-1" d="M73.05,10.67,60.13,39.27A11.38,11.38,0,0,1,56.78,44a7.44,7.44,0,0,1-4.51,1.4A9,9,0,0,1,49,44.81a7,7,0,0,1-2.58-1.69l1.21-1.83a6.27,6.27,0,0,0,4.68,2,5,5,0,0,0,3.13-1,9.12,9.12,0,0,0,2.41-3.48l1.35-3L47.88,10.67h2.56L60.51,33.19,70.59,10.67Z"/><path class="cls-1" d="M114.15,26.44a8,8,0,0,1-.84,3.71A8.39,8.39,0,0,1,111,32.92a10.15,10.15,0,0,1-3.35,1.74,13.74,13.74,0,0,1-4.1.6H87.24V1h17.65a6.79,6.79,0,0,1,3.23.77,7.88,7.88,0,0,1,2.46,2,9,9,0,0,1,1.57,2.8,9.39,9.39,0,0,1,.55,3.16,9.13,9.13,0,0,1-1.28,4.7,7.73,7.73,0,0,1-3.64,3.25,8.71,8.71,0,0,1,4.66,3.16A9,9,0,0,1,114.15,26.44ZM92.64,5.71V15.78h9.94a4.35,4.35,0,0,0,1.85-.38,5.23,5.23,0,0,0,1.5-1,4.47,4.47,0,0,0,1-1.57,5.46,5.46,0,0,0,.36-2,5.33,5.33,0,0,0-1.25-3.64,4.06,4.06,0,0,0-3.18-1.42Zm16,19.72a5.79,5.79,0,0,0-.36-2,5.94,5.94,0,0,0-1-1.69,4.5,4.5,0,0,0-1.47-1.15,4.16,4.16,0,0,0-1.88-.44H92.64V30.59h11a4.84,4.84,0,0,0,2-.41,5.05,5.05,0,0,0,2.65-2.75A5.2,5.2,0,0,0,108.6,25.43Z"/><path class="cls-1" d="M143.9,35.26V1h5.4V30.49h18.37v4.77Z"/><path class="cls-1" d="M249.4,17.91a17.92,17.92,0,0,1,1.11-6.15,17,17,0,0,1,3.25-5.5A16.52,16.52,0,0,1,259,2.33a15.74,15.74,0,0,1,7-1.49,14.84,14.84,0,0,1,8,2.07,13.48,13.48,0,0,1,5,5.4l-4.25,2.84A9.9,9.9,0,0,0,273,8.55a8.6,8.6,0,0,0-2.22-1.69A10,10,0,0,0,268.3,6a12.3,12.3,0,0,0-2.51-.26,9.87,9.87,0,0,0-4.72,1.08,10.49,10.49,0,0,0-3.4,2.87,12.58,12.58,0,0,0-2.07,4,14.59,14.59,0,0,0-.7,4.44,13.82,13.82,0,0,0,.82,4.77,12.73,12.73,0,0,0,2.29,4,11.21,11.21,0,0,0,3.49,2.78,9.61,9.61,0,0,0,4.44,1,11.21,11.21,0,0,0,2.58-.31,9.9,9.9,0,0,0,2.55-1,10.57,10.57,0,0,0,2.27-1.76A8.82,8.82,0,0,0,275.05,25l4.49,2.56a10.54,10.54,0,0,1-2.32,3.4,14.82,14.82,0,0,1-3.37,2.48,17.46,17.46,0,0,1-4,1.54,16.46,16.46,0,0,1-4.12.53A14.15,14.15,0,0,1,259.14,34,17.39,17.39,0,0,1,254,30a18.27,18.27,0,0,1-3.37-5.64A17.75,17.75,0,0,1,249.4,17.91Z"/><path class="cls-1" d="M308.66,35.26V1.08h5.4v17.6L330.17,1h6L322.64,16.17l14.28,19.09h-6L319.32,19.5l-5.26,5.44V35.26Z"/><path class="cls-1" d="M223.77,34.57,208.07.33a.65.65,0,0,0-1.13,0l-15.7,34.24a.61.61,0,0,0,0,.6.6.6,0,0,0,.52.28h3.86a.63.63,0,0,0,.27-.06l10.52-5.14c-.13-1.58-.15-2.77-.15-2.77V25l-9.08,2.28.1-.75a.93.93,0,0,1,.5-.73l8.48-6.19V15.57a5.32,5.32,0,0,1,.34-2c.46-1.33.86-1.16.86-1.16s.4-.17.86,1.16a5.32,5.32,0,0,1,.34,2v4.08l8.48,6.19a.93.93,0,0,1,.5.73l.1.75L208.71,25v2.44s0,1.2-.15,2.77l10.51,5.14a.63.63,0,0,0,.27.06h3.86a.63.63,0,0,0,.53-.28A.64.64,0,0,0,223.77,34.57Z"/></g></g></svg>
